<svg version="1.1" id="Layer_1" xmlns="http://www.w3.org/2000/svg" xmlns:xlink="http://www.w3.org/1999/xlink" x="0px" y="0px"
	 viewBox="0 0 512 512" style="enable-background:new 0 0 512 512;" xml:space="preserve">
<path style="fill:#BDF3FF;" d="M269.839,446.175c-7.594,0-11.168,3.128-15.69,7.089c-4.97,4.35-11.152,9.763-22.806,9.763
	c-11.655,0-17.839-5.414-22.807-9.763c-4.525-3.961-8.098-7.089-15.694-7.089s-11.169,3.128-15.694,7.089
	c-3.612,3.162-7.875,6.878-14.409,8.675c13.866,23.475,39.415,39.265,68.599,39.265s54.736-15.791,68.6-39.267
	c-6.532-1.796-10.795-5.511-14.405-8.672C281.009,449.303,277.435,446.175,269.839,446.175z"/>
<rect x="87.379" y="165.274" style="fill:#E1B658;" width="39.416" height="18.173"/>
<path style="fill:#129A58;" d="M108.67,194.247h-3.168c-11.415,1.126-21.555,14.353-27.293,33.31h57.755
	C130.224,208.6,120.085,195.373,108.67,194.247z"/>
<path style="fill:#FF5240;" d="M73.256,262.636c0,8.501,0.822,16.693,2.295,24.283h63.07c1.474-7.59,2.295-15.781,2.295-24.283
	c0-8.502-0.822-16.694-2.295-24.284h-63.07C74.078,245.942,73.256,254.133,73.256,262.636z"/>
<path style="fill:#129A58;" d="M107.085,331.11c12.058,0,22.884-13.559,28.886-33.394h-57.77
	C84.202,317.551,95.028,331.11,107.085,331.11z"/>
<path style="fill:#BDF3FF;" d="M230.024,341.99c-28.631,0.468-53.628,16.121-67.286,39.234c6.532,1.798,10.797,5.511,14.409,8.673
	c4.522,3.96,8.096,7.088,15.688,7.088c7.597,0,11.17-3.128,15.696-7.091c4.969-4.348,11.15-9.761,22.802-9.761
	c11.654,0,17.836,5.412,22.805,9.762c4.526,3.961,8.099,7.089,15.696,7.089c7.596,0,11.169-3.128,15.694-7.089
	c3.613-3.162,7.877-6.878,14.415-8.673c-13.658-23.114-38.656-38.766-67.286-39.234h-2.632V341.99z"/>
<g>
	<path style="fill:#FF5240;" d="M376.26,231.305l-5.765-11.679l-5.764,11.678c-0.786,1.593-2.306,2.698-4.064,2.953l-12.892,1.874
		l9.328,9.093c1.274,1.24,1.853,3.028,1.553,4.778l-2.202,12.835l11.527-6.06c0.786-0.414,1.648-0.62,2.512-0.62
		s1.726,0.206,2.512,0.62l11.531,6.063l-2.202-12.836c-0.3-1.75,0.28-3.537,1.552-4.778l9.327-9.093l-12.89-1.874
		C378.566,234.001,377.045,232.898,376.26,231.305z"/>
	<path style="fill:#FF5240;" d="M269.832,407.782c-11.655,0-17.839-5.414-22.807-9.762c-4.526-3.961-8.098-7.089-15.694-7.089
		c-7.593,0-11.168,3.128-15.691,7.088c-4.969,4.35-11.151,9.763-22.807,9.763c-11.651,0-17.833-5.412-22.8-9.762
		c-3.785-3.313-6.913-6.037-12.279-6.841c-3.888,9.371-6.041,19.639-6.041,30.403c0,10.762,2.158,21.027,6.045,30.4
		c5.367-0.805,8.495-3.528,12.28-6.842c4.969-4.348,11.151-9.762,22.805-9.762c11.654,0,17.836,5.412,22.805,9.762
		c4.525,3.961,8.099,7.091,15.696,7.091c7.596,0,11.17-3.128,15.694-7.089c4.967-4.35,11.15-9.762,22.802-9.762
		c11.655,0,17.837,5.414,22.806,9.763c3.783,3.313,6.912,6.036,12.274,6.84c3.887-9.373,6.045-19.638,6.045-30.4
		c0-10.764-2.153-21.031-6.041-30.403c-5.37,0.802-8.499,3.528-12.286,6.842C287.668,402.369,281.486,407.782,269.832,407.782z"/>
</g>
<path style="fill:#EFD18D;" d="M391.18,210.818l-20.686-41.914l-20.683,41.914c-0.786,1.593-2.306,2.698-4.064,2.953l-46.258,6.722
	l33.471,32.627c1.274,1.24,1.853,3.028,1.553,4.778l-7.904,46.068l41.373-21.749c0.786-0.414,1.649-0.62,2.512-0.62
	c0.862,0,1.726,0.206,2.512,0.62l41.376,21.75l-7.904-46.068c-0.3-1.751,0.28-3.537,1.553-4.778l33.47-32.627l-46.257-6.722
	C393.485,213.514,391.967,212.411,391.18,210.818z M409.946,230.693c0.635,1.954,0.107,4.099-1.365,5.534l-15.125,14.746
	l3.572,20.819c0.347,2.025-0.485,4.072-2.147,5.279c-0.94,0.683-2.055,1.03-3.174,1.03c-0.86,0-1.721-0.205-2.512-0.62l-18.701-9.83
	l-18.697,9.83c-1.816,0.957-4.021,0.798-5.685-0.41c-1.663-1.208-2.494-3.254-2.147-5.28l3.573-20.818l-15.129-14.746
	c-1.472-1.435-2.001-3.579-1.367-5.534c0.635-1.954,2.325-3.378,4.358-3.673l20.908-3.038l9.347-18.941
	c0.909-1.842,2.785-3.01,4.84-3.01s3.931,1.166,4.84,3.008l9.351,18.942l20.905,3.038
	C407.621,227.315,409.311,228.74,409.946,230.693z"/>
<rect x="207.845" y="308.645" style="fill:#E1B658;" width="46.998" height="22.546"/>
<g>
	<path style="fill:#4F413B;" d="M375.334,205.039c-0.909-1.843-2.785-3.008-4.84-3.008c-2.055,0-3.931,1.167-4.84,3.01
		l-9.347,18.941l-20.908,3.038c-2.032,0.295-3.722,1.72-4.358,3.673c-0.633,1.954-0.104,4.1,1.367,5.534l15.129,14.746
		l-3.573,20.818c-0.347,2.025,0.485,4.072,2.147,5.28c1.665,1.209,3.87,1.367,5.685,0.41l18.697-9.83l18.701,9.83
		c0.789,0.415,1.652,0.62,2.512,0.62c1.119,0,2.232-0.348,3.174-1.03c1.663-1.208,2.494-3.254,2.147-5.279l-3.572-20.819
		l15.125-14.746c1.472-1.435,2-3.579,1.365-5.534c-0.635-1.954-2.325-3.378-4.357-3.673l-20.905-3.038L375.334,205.039z
		 M383.887,245.223c-1.273,1.24-1.852,3.026-1.552,4.778l2.202,12.836l-11.531-6.063c-0.786-0.413-1.648-0.62-2.512-0.62
		s-1.726,0.206-2.512,0.62l-11.526,6.06L358.658,250c0.3-1.75-0.28-3.537-1.553-4.778l-9.328-9.093l12.892-1.874
		c1.759-0.256,3.277-1.36,4.064-2.953l5.764-11.678l5.765,11.679c0.786,1.593,2.307,2.697,4.064,2.952l12.89,1.874L383.887,245.223z
		"/>
	<path style="fill:#4F413B;" d="M453.878,211.381l-54.273-7.887l-23.714-48.048V10.796h62.842c2.981,0,5.398-2.417,5.398-5.398
		S441.714,0,438.734,0H58.897c-2.981,0-5.398,2.417-5.398,5.398s2.417,5.398,5.398,5.398h42.793v143.685H81.981
		c-2.981,0-5.398,2.417-5.398,5.398v28.97c0,2.981,2.417,5.398,5.398,5.398h2.254c-13.128,13.646-21.773,38.883-21.773,68.39
		c0,44.451,19.602,79.27,44.625,79.27c25.024,0,44.627-34.819,44.627-79.27c0-29.497-8.637-54.74-21.759-68.39h2.238
		c2.981,0,5.398-2.417,5.398-5.398v-28.97c0-2.981-2.417-5.398-5.398-5.398h-19.709V10.796H225.94v287.056h-23.499
		c-2.981,0-5.398,2.417-5.398,5.398v33.343c0,0.447,0.071,0.877,0.174,1.293c-32.986,13.494-56.299,45.909-56.299,83.696
		c0,49.856,40.562,90.417,90.421,90.417c49.858,0,90.421-40.562,90.421-90.417c0-37.787-23.307-70.218-56.296-83.711
		c0.101-0.413,0.169-0.836,0.169-1.279V303.25c0-2.981-2.417-5.398-5.398-5.398h-23.498V10.796h128.359v144.65l-23.71,48.048
		l-54.275,7.887c-2.032,0.295-3.721,1.72-4.357,3.673c-0.635,1.954-0.106,4.099,1.366,5.534l39.272,38.28l-9.273,54.051
		c-0.347,2.025,0.485,4.072,2.147,5.279c0.94,0.683,2.055,1.03,3.174,1.03c0.86,0,1.721-0.205,2.512-0.62l48.542-25.518
		l48.546,25.518c1.819,0.955,4.022,0.798,5.685-0.411c1.663-1.208,2.494-3.254,2.147-5.279l-9.273-54.051l39.27-38.28
		c1.472-1.433,2.001-3.579,1.366-5.534C457.6,213.1,455.91,211.677,453.878,211.381z M107.085,331.11
		c-12.058,0-22.883-13.559-28.884-33.394h57.77C129.97,317.551,119.143,331.11,107.085,331.11z M140.917,262.636
		c0,8.501-0.822,16.693-2.295,24.283H75.551c-1.474-7.59-2.295-15.781-2.295-24.283c0-8.502,0.822-16.694,2.295-24.284h63.07
		C140.096,245.942,140.917,254.133,140.917,262.636z M135.964,227.556H78.208c5.739-18.957,15.878-32.183,27.293-33.31h3.168
		C120.085,195.373,130.224,208.6,135.964,227.556z M126.795,165.277v18.174H87.379v-18.174H126.795z M231.338,501.204
		c-29.183,0-54.733-15.79-68.599-39.265c6.533-1.797,10.797-5.513,14.409-8.675c4.525-3.961,8.098-7.089,15.694-7.089
		s11.169,3.128,15.694,7.089c4.969,4.35,11.152,9.763,22.807,9.763c11.654,0,17.836-5.414,22.806-9.763
		c4.524-3.961,8.096-7.089,15.69-7.089c7.596,0,11.169,3.128,15.694,7.091c3.611,3.162,7.873,6.876,14.405,8.672
		C286.074,485.413,260.523,501.204,231.338,501.204z M310.963,421.581c0,10.762-2.158,21.027-6.045,30.4
		c-5.363-0.804-8.49-3.527-12.274-6.84c-4.969-4.35-11.151-9.763-22.806-9.763c-11.652,0-17.835,5.412-22.802,9.762
		c-4.524,3.961-8.098,7.089-15.694,7.089c-7.597,0-11.17-3.128-15.696-7.091c-4.969-4.348-11.151-9.762-22.805-9.762
		s-17.836,5.412-22.805,9.762c-3.785,3.313-6.914,6.037-12.28,6.842c-3.887-9.373-6.045-19.638-6.045-30.4
		c0-10.764,2.153-21.031,6.041-30.403c5.367,0.804,8.494,3.527,12.279,6.841c4.967,4.35,11.149,9.762,22.8,9.762
		c11.656,0,17.839-5.414,22.807-9.763c4.524-3.96,8.098-7.088,15.691-7.088c7.596,0,11.169,3.128,15.694,7.089
		c4.969,4.348,11.152,9.762,22.807,9.762c11.654,0,17.836-5.412,22.805-9.762c3.787-3.314,6.917-6.039,12.286-6.842
		C308.81,400.551,310.963,410.818,310.963,421.581z M299.941,381.225c-6.536,1.795-10.802,5.511-14.415,8.673
		c-4.525,3.961-8.098,7.089-15.694,7.089c-7.597,0-11.17-3.128-15.696-7.089c-4.969-4.348-11.151-9.762-22.805-9.762
		c-11.652,0-17.834,5.412-22.802,9.761c-4.525,3.961-8.099,7.091-15.696,7.091c-7.592,0-11.165-3.128-15.688-7.088
		c-3.612-3.162-7.876-6.876-14.409-8.673c13.658-23.114,38.656-38.766,67.286-39.234h2.631
		C261.285,342.458,286.283,358.111,299.941,381.225z M254.836,308.648v22.547h-46.997v-22.547H254.836z M408.031,253.119
		c-1.273,1.24-1.853,3.026-1.553,4.778l7.904,46.068l-41.376-21.75c-0.786-0.413-1.649-0.62-2.512-0.62
		c-0.862,0-1.726,0.206-2.512,0.62l-41.373,21.749l7.904-46.068c0.3-1.751-0.279-3.538-1.553-4.778l-33.471-32.627l46.258-6.722
		c1.759-0.255,3.278-1.36,4.064-2.953l20.683-41.914l20.686,41.914c0.786,1.593,2.306,2.697,4.064,2.952l46.257,6.722
		L408.031,253.119z"/>
</g>
<g>
</g>
<g>
</g>
<g>
</g>
<g>
</g>
<g>
</g>
<g>
</g>
<g>
</g>
<g>
</g>
<g>
</g>
<g>
</g>
<g>
</g>
<g>
</g>
<g>
</g>
<g>
</g>
<g>
</g>
</svg>
